<svg xmlns="http://www.w3.org/2000/svg" xmlns:xlink="http://www.w3.org/1999/xlink" width="500" zoomAndPan="magnify" viewBox="0 0 375 374.999991" height="500" preserveAspectRatio="xMidYMid meet" version="1.0"><defs><g/><clipPath id="7bbf840674"><path d="M 174 134.167969 L 216 134.167969 L 216 248.917969 L 174 248.917969 Z M 174 134.167969 " clip-rule="nonzero"/></clipPath><clipPath id="4e6a5e1845"><path d="M 155.539062 181 L 184 181 L 184 215 L 155.539062 215 Z M 155.539062 181 " clip-rule="nonzero"/></clipPath><clipPath id="534c58d149"><path d="M 156 146 L 219.289062 146 L 219.289062 207 L 156 207 Z M 156 146 " clip-rule="nonzero"/></clipPath></defs><rect x="-37.5" width="450" fill="#ffffff" y="-37.499999" height="449.999989" fill-opacity="1"/><rect x="-37.5" width="450" fill="#ffffff" y="-37.499999" height="449.999989" fill-opacity="1"/><rect x="-37.5" width="450" fill="#ffffff" y="-37.499999" height="449.999989" fill-opacity="1"/><g clip-path="url(#7bbf840674)"><path fill="#f6c6fa" d="M 186.078125 191.351562 C 186.054688 191.023438 186.59375 191.023438 186.617188 191.351562 C 186.851562 195.519531 187.0625 199.6875 187.226562 203.878906 C 187.554688 211.433594 187.765625 218.992188 187.90625 226.550781 C 188.023438 233.894531 188.070312 241.242188 188.023438 248.585938 C 188.023438 248.917969 187.484375 248.917969 187.484375 248.585938 C 187.507812 244.464844 187.507812 240.371094 187.484375 236.25 C 187.4375 228.738281 187.296875 221.230469 187.0625 213.742188 C 186.828125 206.257812 186.5 198.792969 186.078125 191.351562 Z M 174.132812 177.25 C 174.738281 183.394531 175.511719 189.515625 176.589844 195.566406 C 177.363281 199.898438 178.253906 204.230469 179.449219 208.46875 C 180.246094 211.386719 181.183594 214.261719 182.332031 217.0625 C 182.871094 218.402344 183.339844 219.769531 183.78125 221.160156 C 184.601562 223.773438 185.375 226.433594 186.101562 229.070312 C 187.695312 234.882812 189.148438 240.722656 190.320312 246.632812 C 190.414062 247.128906 190.507812 247.621094 190.625 248.117188 C 190.695312 248.445312 191.1875 248.304688 191.140625 247.976562 C 190.0625 242.394531 188.773438 236.863281 187.296875 231.375 C 186.523438 228.457031 185.703125 225.5625 184.8125 222.664062 C 184.296875 220.96875 183.804688 219.273438 183.152344 217.652344 C 182.707031 216.496094 182.214844 215.34375 181.792969 214.167969 C 181.253906 212.683594 180.785156 211.175781 180.339844 209.667969 C 179.167969 205.644531 178.230469 201.523438 177.457031 197.402344 C 176.355469 191.589844 175.558594 185.726562 174.925781 179.839844 C 174.832031 178.96875 174.738281 178.097656 174.644531 177.226562 C 174.621094 176.921875 174.085938 176.921875 174.132812 177.25 Z M 186.453125 248.257812 C 185.890625 244.796875 185.84375 241.242188 186.335938 237.78125 C 186.828125 234.296875 188.046875 231 188.75 227.5625 C 189.6875 223.042969 190.015625 218.429688 190.742188 213.859375 C 191.1875 211.035156 191.726562 208.234375 192.289062 205.433594 C 193.199219 200.839844 194.183594 196.25 195.191406 191.660156 C 196.691406 184.785156 198.261719 177.933594 199.878906 171.082031 C 200.113281 170.070312 200.347656 169.035156 200.605469 168.023438 C 200.675781 167.691406 200.183594 167.550781 200.089844 167.878906 C 198.402344 175.085938 196.738281 182.289062 195.144531 189.492188 C 194.066406 194.34375 193.011719 199.191406 192.054688 204.042969 C 191.445312 207.03125 190.882812 210.023438 190.367188 213.011719 C 189.6875 217.0625 189.382812 221.160156 188.679688 225.207031 C 188.351562 227.117188 187.929688 229 187.4375 230.859375 C 187.039062 232.367188 186.570312 233.847656 186.242188 235.355469 C 185.46875 238.980469 185.28125 242.722656 185.679688 246.421875 C 185.75 247.054688 185.84375 247.714844 185.9375 248.351562 C 186.007812 248.726562 186.523438 248.585938 186.453125 248.257812 Z M 175.699219 213.835938 C 178.605469 218.523438 181.488281 223.207031 184.296875 227.9375 C 185.1875 229.421875 186.078125 230.929688 186.898438 232.460938 C 187.90625 234.390625 188.820312 236.367188 189.640625 238.367188 C 190.882812 241.453125 191.867188 244.632812 192.640625 247.855469 C 192.710938 248.1875 193.222656 248.046875 193.152344 247.714844 C 191.914062 242.558594 190.109375 237.519531 187.671875 232.789062 C 186.898438 231.304688 186.078125 229.871094 185.210938 228.433594 C 183.734375 225.960938 182.238281 223.511719 180.738281 221.042969 C 179.214844 218.546875 177.667969 216.027344 176.121094 213.53125 C 175.980469 213.273438 175.511719 213.53125 175.699219 213.835938 Z M 199.082031 206.136719 C 197.957031 209.550781 196.644531 212.917969 195.144531 216.167969 C 194.042969 218.59375 192.828125 220.945312 191.515625 223.253906 C 190.460938 225.089844 189.476562 226.972656 188.539062 228.882812 C 187.695312 230.601562 186.828125 232.34375 186.171875 234.132812 C 185.585938 235.707031 185.140625 237.355469 184.835938 239.027344 C 184.601562 240.277344 184.460938 241.523438 184.367188 242.773438 C 184.25 244.183594 184.15625 245.597656 184.15625 247.03125 C 184.15625 247.363281 184.15625 247.714844 184.15625 248.046875 C 184.15625 248.375 184.695312 248.398438 184.695312 248.046875 C 184.671875 246.515625 184.742188 244.984375 184.859375 243.453125 C 184.953125 242.324219 185.046875 241.21875 185.210938 240.085938 C 185.445312 238.511719 185.796875 236.933594 186.289062 235.425781 C 186.875 233.566406 187.71875 231.824219 188.5625 230.058594 C 189.617188 227.890625 190.71875 225.75 191.914062 223.65625 C 193.105469 221.558594 194.230469 219.441406 195.238281 217.25 C 196.714844 214.121094 198.003906 210.917969 199.128906 207.644531 C 199.292969 207.175781 199.457031 206.703125 199.597656 206.230469 C 199.691406 205.949219 199.175781 205.808594 199.082031 206.136719 Z M 214.894531 144.902344 C 213.347656 139.792969 208.289062 134.167969 201.683594 134.355469 C 195.660156 134.519531 191.1875 139.464844 189.617188 143.914062 C 186.570312 152.601562 192.941406 163.949219 200.089844 165.832031 C 200.019531 165.996094 199.925781 166.183594 199.785156 166.375 C 199.339844 167.007812 198.917969 167.101562 198.964844 167.363281 C 199.035156 167.855469 200.511719 168 201.449219 167.832031 C 201.636719 167.808594 201.824219 167.738281 201.894531 167.597656 C 202.011719 167.363281 201.636719 167.054688 201.402344 166.515625 C 201.332031 166.351562 201.285156 166.183594 201.238281 166.042969 C 201.496094 166.066406 201.777344 166.089844 202.035156 166.089844 C 209.648438 166.160156 217.777344 154.390625 214.894531 144.902344 Z M 214.894531 144.902344 " fill-opacity="1" fill-rule="nonzero"/></g><g clip-path="url(#4e6a5e1845)"><path fill="#f6c6fa" d="M 180.175781 187.984375 C 177.035156 183.703125 170.40625 180.074219 164.246094 182.429688 C 158.621094 184.597656 156.019531 190.742188 155.996094 195.472656 C 155.972656 205.410156 167.359375 214.660156 174.808594 212.332031 C 174.808594 212.472656 174.785156 212.613281 174.761719 212.777344 C 174.644531 213.367188 174.363281 213.742188 174.527344 213.953125 C 174.621094 214.074219 174.832031 214.097656 175.019531 214.074219 C 175.957031 214.023438 177.386719 213.53125 177.339844 213.035156 C 177.316406 212.777344 176.894531 212.777344 176.308594 212.257812 C 176.167969 212.140625 176.050781 212 175.933594 211.859375 C 182.542969 208.585938 185.773438 195.636719 180.175781 187.984375 Z M 180.175781 187.984375 " fill-opacity="1" fill-rule="nonzero"/></g><g clip-path="url(#534c58d149)"><path fill="#d4b2e4" d="M 186.101562 157.214844 C 186.148438 163.007812 182.589844 167.410156 180.035156 170.539062 C 178.957031 171.882812 177.339844 173.671875 175.113281 175.53125 C 175.207031 175.789062 175.347656 176.074219 175.558594 176.355469 C 176.027344 176.992188 176.449219 177.0625 176.425781 177.320312 C 176.378906 177.816406 174.902344 178.027344 173.96875 177.886719 C 173.78125 177.863281 173.59375 177.816406 173.523438 177.675781 C 173.40625 177.4375 173.757812 177.132812 173.96875 176.566406 C 174.132812 176.167969 174.15625 175.789062 174.15625 175.554688 C 170.195312 174.097656 167.195312 172.28125 165.179688 170.847656 C 161.996094 168.609375 158.902344 166.375 157.285156 162.277344 C 156.910156 161.335938 156.699219 160.488281 156.558594 159.804688 C 156.464844 159.5 156.394531 159.167969 156.347656 158.839844 C 155.574219 154.179688 158.597656 149.777344 163.121094 149 C 165.789062 148.550781 168.390625 149.46875 170.21875 151.257812 C 170.992188 149.515625 172.328125 148.058594 174.15625 147.210938 C 178.207031 145.324219 183.082031 147.210938 185 151.421875 C 185.421875 152.367188 185.679688 153.332031 185.75 154.296875 C 185.9375 155.097656 186.101562 156.0625 186.101562 157.214844 Z M 211.148438 178.6875 C 209.132812 178.6875 207.304688 179.441406 205.875 180.710938 C 204.960938 178.308594 202.992188 176.378906 200.371094 175.671875 C 195.941406 174.472656 191.351562 177.179688 190.132812 181.746094 C 190.039062 182.078125 189.96875 182.40625 189.921875 182.710938 C 189.757812 183.394531 189.59375 184.265625 189.546875 185.277344 C 189.3125 189.679688 191.1875 193.023438 193.152344 196.390625 C 194.394531 198.535156 196.363281 201.429688 199.363281 204.441406 C 199.246094 204.609375 199.105469 204.796875 198.941406 204.984375 C 198.402344 205.550781 197.980469 205.550781 197.957031 205.832031 C 197.933594 206.328125 199.386719 206.726562 200.324219 206.726562 C 200.511719 206.726562 200.722656 206.703125 200.792969 206.5625 C 200.933594 206.328125 200.628906 205.996094 200.488281 205.410156 C 200.417969 205.171875 200.417969 204.960938 200.394531 204.773438 C 203.109375 204.019531 205.242188 203.078125 206.765625 202.347656 C 210.398438 200.558594 215.457031 198.0625 217.824219 192.789062 C 218.292969 191.730469 218.574219 190.789062 218.738281 190.035156 C 219.066406 189.117188 219.253906 188.128906 219.253906 187.113281 C 219.253906 182.429688 215.621094 178.6875 211.148438 178.6875 Z M 211.148438 178.6875 " fill-opacity="1" fill-rule="nonzero"/></g><path fill="#bec4ed" d="M 186.921875 189.964844 C 186.96875 190.199219 187.0625 190.457031 187.179688 190.71875 C 187.53125 191.421875 187.929688 191.566406 187.859375 191.824219 C 187.71875 192.292969 186.21875 192.222656 185.328125 191.941406 C 185.140625 191.894531 184.953125 191.800781 184.929688 191.660156 C 184.859375 191.398438 185.257812 191.164062 185.5625 190.648438 C 185.726562 190.386719 185.820312 190.152344 185.867188 189.941406 C 178.253906 189.140625 170.945312 176.96875 174.175781 167.808594 C 175.746094 163.335938 180.222656 158.414062 186.242188 158.25 C 192.847656 158.0625 197.910156 163.691406 199.457031 168.773438 C 202.3125 178.121094 194.441406 189.703125 186.921875 189.964844 Z M 194.699219 238.933594 C 194.722656 240.132812 194.746094 241.3125 194.792969 242.511719 C 193.574219 242.066406 191.328125 241.03125 189.6875 238.816406 C 188.726562 237.519531 188.210938 236.109375 188.046875 235.636719 C 187.671875 234.601562 187.484375 233.683594 187.367188 232.976562 C 185.796875 235.027344 185.46875 236.699219 185.421875 237.734375 C 185.351562 238.816406 185.515625 240.886719 185.632812 242.699219 C 185.65625 242.914062 185.65625 243.078125 185.65625 243.171875 C 185.539062 243.148438 185.351562 243.101562 185.140625 243.054688 C 184.507812 242.890625 183.386719 242.605469 182.332031 241.757812 C 182.238281 241.6875 182.191406 241.640625 182.144531 241.617188 C 182.472656 241.21875 182.894531 240.628906 183.246094 239.828125 C 183.410156 239.453125 183.523438 239.121094 183.734375 238.34375 C 184.226562 236.578125 184.203125 236.109375 184.484375 235.308594 C 184.71875 234.648438 185.117188 233.730469 185.84375 232.671875 C 184.765625 232.460938 183.710938 232.175781 182.683594 231.847656 C 181.957031 231.613281 181.230469 231.328125 180.691406 230.8125 C 180.152344 230.292969 179.871094 229.421875 180.199219 228.738281 C 180.433594 228.246094 180.949219 227.9375 181.464844 227.820312 C 182.003906 227.726562 182.542969 227.796875 183.058594 227.960938 C 184.8125 228.503906 186.3125 229.847656 187.015625 231.542969 C 187.015625 230.742188 187.132812 229.632812 187.695312 228.457031 C 187.953125 227.914062 188.703125 226.433594 190.25 225.75 C 190.648438 225.585938 191.140625 225.375 191.679688 225.5625 C 192.382812 225.796875 192.804688 226.621094 192.757812 227.375 C 192.710938 228.128906 192.335938 228.808594 191.867188 229.398438 C 190.835938 230.695312 189.40625 231.636719 188.023438 232.53125 C 188.890625 233.824219 189.6875 234.933594 190.390625 235.875 C 191.5625 237.425781 192.171875 238.109375 193.175781 238.558594 C 193.785156 238.816406 194.324219 238.886719 194.699219 238.933594 Z M 186.453125 231.941406 C 185.632812 230.246094 183.875 229.046875 182.027344 228.90625 C 181.863281 228.882812 181.722656 228.882812 181.582031 228.929688 C 181.441406 228.976562 181.300781 229.09375 181.277344 229.257812 C 181.253906 229.375 181.300781 229.492188 181.347656 229.609375 C 181.675781 230.222656 182.355469 230.503906 182.988281 230.765625 C 184.039062 231.164062 185.070312 231.589844 186.125 231.988281 Z M 187.695312 231.472656 L 187.929688 231.375 C 188.234375 231.164062 188.539062 230.976562 188.84375 230.765625 C 189.101562 230.601562 189.359375 230.410156 189.59375 230.222656 C 190.226562 229.679688 190.71875 228.976562 191.117188 228.246094 C 191.234375 228.011719 191.375 227.773438 191.421875 227.515625 C 191.46875 227.257812 191.398438 226.972656 191.210938 226.785156 C 191.023438 226.597656 190.71875 226.574219 190.460938 226.644531 C 190.203125 226.714844 189.96875 226.878906 189.78125 227.066406 C 188.46875 228.152344 187.695312 229.800781 187.695312 231.472656 Z M 187.695312 231.472656 " fill-opacity="1" fill-rule="nonzero"/><path fill="#ffffff" d="M 159.535156 159.617188 C 160.003906 160.394531 158.785156 161.101562 158.316406 160.324219 C 157.894531 159.640625 157.824219 158.863281 157.753906 158.085938 C 157.683594 157.332031 157.683594 156.578125 157.777344 155.851562 C 157.964844 154.4375 158.527344 153.046875 159.652344 152.128906 C 159.957031 151.894531 160.355469 151.847656 160.636719 152.128906 C 160.894531 152.390625 160.941406 152.882812 160.636719 153.117188 C 159.769531 153.824219 159.324219 154.859375 159.160156 155.945312 C 159.066406 156.601562 159.089844 157.285156 159.136719 157.96875 C 159.207031 158.535156 159.230469 159.121094 159.535156 159.617188 Z M 159.371094 162.417969 C 159.652344 162.914062 160.003906 163.359375 160.378906 163.785156 C 160.496094 163.902344 160.707031 163.996094 160.871094 163.996094 C 161.035156 163.996094 161.246094 163.925781 161.363281 163.785156 C 161.480469 163.640625 161.574219 163.476562 161.574219 163.289062 C 161.574219 163.101562 161.503906 162.9375 161.363281 162.796875 C 161.222656 162.628906 161.082031 162.464844 160.941406 162.300781 C 160.988281 162.347656 161.011719 162.394531 161.058594 162.441406 C 160.871094 162.207031 160.730469 161.972656 160.566406 161.710938 C 160.472656 161.546875 160.308594 161.429688 160.144531 161.382812 C 159.980469 161.335938 159.746094 161.359375 159.605469 161.453125 C 159.464844 161.546875 159.324219 161.6875 159.277344 161.875 C 159.253906 162.066406 159.277344 162.253906 159.371094 162.417969 Z M 177.714844 171.035156 C 177.667969 169.976562 178.042969 168.894531 178.371094 167.878906 C 178.699219 166.914062 179.144531 166.066406 179.894531 165.359375 C 180.175781 165.101562 180.152344 164.632812 179.894531 164.371094 C 179.613281 164.089844 179.191406 164.113281 178.910156 164.371094 C 178.019531 165.195312 177.433594 166.257812 177.058594 167.410156 C 176.660156 168.5625 176.285156 169.8125 176.332031 171.035156 C 176.332031 171.929688 177.738281 171.929688 177.714844 171.035156 Z M 178.113281 176.402344 C 177.996094 175.980469 177.902344 175.53125 177.832031 175.085938 C 177.832031 175.15625 177.855469 175.203125 177.855469 175.273438 C 177.832031 175.015625 177.785156 174.730469 177.785156 174.472656 C 177.761719 174.097656 177.480469 173.742188 177.082031 173.765625 C 176.707031 173.789062 176.355469 174.070312 176.378906 174.472656 C 176.402344 175.25 176.542969 176.027344 176.753906 176.78125 C 176.847656 177.132812 177.246094 177.390625 177.621094 177.273438 C 177.996094 177.132812 178.230469 176.78125 178.113281 176.402344 Z M 193.082031 144.453125 C 193.949219 142.101562 195.589844 140.050781 197.675781 138.6875 C 198.003906 138.476562 198.121094 138.050781 197.933594 137.722656 C 197.746094 137.414062 197.300781 137.25 196.972656 137.460938 C 194.558594 139.039062 192.734375 141.371094 191.726562 144.078125 C 191.585938 144.429688 191.867188 144.855469 192.21875 144.949219 C 192.617188 145.042969 192.941406 144.808594 193.082031 144.453125 Z M 191.140625 146.644531 C 190.789062 147.445312 190.601562 148.316406 190.671875 149.1875 C 190.695312 149.375 190.742188 149.539062 190.882812 149.679688 C 191 149.800781 191.210938 149.894531 191.375 149.894531 C 191.726562 149.871094 192.101562 149.585938 192.078125 149.1875 C 192.054688 148.882812 192.054688 148.550781 192.101562 148.246094 C 192.101562 148.316406 192.078125 148.363281 192.078125 148.433594 C 192.125 148.035156 192.242188 147.65625 192.382812 147.304688 C 192.359375 147.351562 192.335938 147.421875 192.3125 147.46875 C 192.335938 147.421875 192.335938 147.398438 192.359375 147.351562 C 192.429688 147.164062 192.476562 146.996094 192.429688 146.808594 C 192.382812 146.644531 192.265625 146.457031 192.101562 146.386719 C 191.9375 146.292969 191.75 146.242188 191.5625 146.316406 C 191.398438 146.363281 191.210938 146.480469 191.140625 146.644531 Z M 159.113281 194.390625 C 159.347656 191.730469 160.613281 189.210938 162.535156 187.375 C 163.191406 186.738281 162.207031 185.75 161.550781 186.386719 C 159.324219 188.480469 157.988281 191.375 157.707031 194.414062 C 157.683594 194.789062 158.058594 195.121094 158.410156 195.121094 C 158.832031 195.097656 159.089844 194.765625 159.113281 194.390625 Z M 159.722656 199.921875 C 159.652344 199.757812 159.582031 199.617188 159.511719 199.453125 C 159.535156 199.5 159.558594 199.570312 159.582031 199.617188 C 159.324219 199.027344 159.160156 198.390625 159.089844 197.757812 C 159.089844 197.828125 159.113281 197.875 159.113281 197.945312 C 159.113281 197.921875 159.113281 197.921875 159.113281 197.898438 C 159.089844 197.710938 159.042969 197.542969 158.902344 197.402344 C 158.785156 197.285156 158.574219 197.191406 158.410156 197.191406 C 158.222656 197.191406 158.035156 197.261719 157.917969 197.402344 C 157.800781 197.519531 157.683594 197.734375 157.707031 197.898438 C 157.824219 198.863281 158.082031 199.757812 158.527344 200.628906 C 158.691406 200.957031 159.183594 201.078125 159.488281 200.886719 C 159.816406 200.675781 159.910156 200.277344 159.722656 199.921875 Z M 193.644531 191.398438 C 193.433594 191 193.246094 190.601562 193.082031 190.175781 C 193.105469 190.246094 193.128906 190.292969 193.152344 190.363281 C 193.058594 190.105469 192.988281 189.847656 192.917969 189.585938 C 192.828125 189.234375 192.453125 188.953125 192.078125 189.046875 C 191.726562 189.140625 191.445312 189.515625 191.539062 189.894531 C 191.75 190.648438 192.03125 191.375 192.40625 192.058594 C 192.59375 192.390625 193.035156 192.554688 193.363281 192.34375 C 193.667969 192.152344 193.832031 191.753906 193.644531 191.398438 Z M 193.644531 191.398438 " fill-opacity="1" fill-rule="nonzero"/><g fill="#a591ef" fill-opacity="1"><g transform="translate(117.313466, 164.734039)"><g><path d="M 3.128906 -7.421875 C 5.1875 -13.074219 2.730469 -16.914062 -0.164062 -17.96875 C -2.148438 -18.691406 -4.125 -18.59375 -5.878906 -16.621094 C -6.324219 -16.144531 -6.625 -15.980469 -6.949219 -16.097656 C -7.160156 -16.175781 -7.390625 -16.382812 -7.625 -16.738281 C -8.144531 -17.476562 -8.851562 -18.125 -9.789062 -18.46875 C -13.484375 -19.816406 -15.324219 -16.265625 -16.378906 -13.371094 C -17.871094 -9.269531 -17.640625 -7.242188 -15.871094 -6.597656 C -13.96875 -5.90625 -13.238281 -7.492188 -8.761719 -5.863281 L -6.699219 -5.109375 C -3.429688 -3.921875 -3.085938 -1.945312 -1.183594 -1.25 C 0.128906 -0.773438 1.117188 -1.898438 3.128906 -7.421875 Z M -9.074219 -11.257812 C -9.328125 -10.5625 -9.792969 -10.03125 -12.070312 -10.863281 C -13.679688 -11.445312 -13.894531 -12.191406 -13.542969 -13.15625 C -12.988281 -14.683594 -11.488281 -14.714844 -10.550781 -14.375 C -9.558594 -14.015625 -8.488281 -12.867188 -9.074219 -11.257812 Z M 0.65625 -9.050781 C -0.0078125 -7.226562 -1.824219 -7.160156 -4.316406 -8.066406 C -6.835938 -8.984375 -6.679688 -9.746094 -6.320312 -10.738281 C -5.371094 -13.339844 -3.109375 -13.546875 -1.691406 -13.03125 C 0.1875 -12.347656 1.320312 -10.871094 0.65625 -9.050781 Z M 0.65625 -9.050781 "/></g></g></g><g fill="#a591ef" fill-opacity="1"><g transform="translate(125.737792, 143.844582)"><g><path d="M 5.636719 -6.890625 C 8.898438 -11.148438 7.007812 -14.355469 3.675781 -16.90625 L 0.574219 -19.28125 C -2.414062 -21.570312 -1.867188 -23.269531 -3.40625 -24.449219 C -4.652344 -25.402344 -6.332031 -24.570312 -7.371094 -23.210938 C -8.464844 -21.785156 -8.851562 -19.78125 -7.355469 -18.636719 C -5.746094 -17.40625 -4.578125 -18.699219 -1.472656 -16.324219 L 0.949219 -14.46875 C 4.027344 -12.109375 4.769531 -10.359375 3.417969 -8.589844 C 2.066406 -6.824219 0.179688 -7.082031 -2.902344 -9.441406 L -5.324219 -11.296875 C -8.425781 -13.671875 -7.480469 -15.140625 -9.089844 -16.371094 C -10.585938 -17.515625 -12.417969 -16.621094 -13.511719 -15.195312 C -14.550781 -13.835938 -14.917969 -11.996094 -13.671875 -11.042969 C -12.132812 -9.863281 -10.632812 -10.835938 -7.644531 -8.546875 L -4.542969 -6.171875 C -1.214844 -3.625 2.375 -2.632812 5.636719 -6.890625 Z M 5.636719 -6.890625 "/></g></g></g><g fill="#a591ef" fill-opacity="1"><g transform="translate(140.551176, 126.048018)"><g><path d="M 6.667969 -4.210938 C 10.492188 -6.953125 11.425781 -10.109375 9.433594 -12.890625 C 7.238281 -15.953125 3.847656 -15.347656 0.875 -14.800781 C -1.460938 -14.386719 -3.570312 -14 -4.632812 -15.484375 C -5.246094 -16.34375 -4.949219 -17.398438 -3.976562 -18.097656 C -3.023438 -18.777344 -2.371094 -18.648438 -1.570312 -17.921875 C -0.53125 -17.054688 0.457031 -16.707031 1.800781 -17.671875 C 2.984375 -18.519531 3.511719 -19.984375 2.484375 -21.421875 C 1.46875 -22.835938 -1.257812 -23.65625 -4.96875 -21 C -7.773438 -18.988281 -9.589844 -15.796875 -7.414062 -12.757812 C -5.222656 -9.695312 -1.769531 -10.308594 1.179688 -10.84375 C 3.347656 -11.199219 5.203125 -11.546875 6.082031 -10.320312 C 6.730469 -9.414062 6.785156 -8.261719 5.53125 -7.363281 C 4.464844 -6.601562 3.609375 -6.617188 2.480469 -7.316406 C 0.9375 -8.246094 0.125 -8.300781 -1.148438 -7.386719 C -2.679688 -6.289062 -2.605469 -4.519531 -1.757812 -3.335938 C -0.429688 -1.480469 2.65625 -1.339844 6.667969 -4.210938 Z M 6.667969 -4.210938 "/></g></g></g><g fill="#a591ef" fill-opacity="1"><g transform="translate(158.097905, 114.227032)"><g><path d="M 8.480469 -2.339844 C 10.320312 -2.953125 12.027344 -4.421875 11.539062 -5.882812 C 10.910156 -7.777344 9.125 -7.8125 8.078125 -10.953125 C 7.683594 -12.324219 7.78125 -12.929688 8.335938 -14.707031 C 9.417969 -18.3125 12.929688 -19.871094 12.019531 -22.605469 C 11.570312 -23.957031 9.902344 -24.363281 8.304688 -23.832031 C 6.410156 -23.203125 5.34375 -21.796875 5.785156 -19.480469 C 6.136719 -17.792969 5.71875 -16.511719 5.429688 -15.394531 C 5.285156 -14.832031 5.105469 -14.652344 4.941406 -14.597656 C 4.808594 -14.554688 4.582031 -14.601562 4.160156 -14.878906 C 1.824219 -16.296875 1.347656 -17.191406 0.804688 -18.273438 C 0.00390625 -19.871094 -1.03125 -20.726562 -2.925781 -20.097656 C -4.441406 -19.59375 -5.84375 -17.746094 -5.230469 -15.90625 C -4.277344 -13.035156 -0.910156 -15.296875 2.832031 -12.183594 C 3.335938 -11.75 4.074219 -11.425781 4.695312 -9.738281 C 5.722656 -6.652344 4.386719 -5.15625 5.007812 -3.289062 C 5.449219 -1.960938 6.964844 -1.835938 8.480469 -2.339844 Z M 8.480469 -2.339844 "/></g></g></g><g fill="#a591ef" fill-opacity="1"><g transform="translate(181.556953, 107.923486)"><g/></g></g><g fill="#a591ef" fill-opacity="1"><g transform="translate(194.643015, 106.766631)"><g><path d="M 3.59375 1.207031 C 5.496094 1.597656 7.707031 1.183594 8.019531 -0.328125 C 8.191406 -1.164062 8 -1.785156 7.796875 -2.496094 C 7.535156 -3.484375 7.1875 -4.632812 7.65625 -6.894531 L 8.390625 -10.472656 C 8.65625 -11.757812 8.925781 -12.777344 9.652344 -12.628906 C 10.6875 -12.414062 10.125 -7.433594 9.855469 -6.121094 C 9.578125 -4.78125 9.808594 -3.074219 12.125 -2.59375 C 14.667969 -2.070312 15.203125 -3.679688 15.441406 -4.824219 C 15.804688 -6.582031 17.246094 -11.03125 18.222656 -10.832031 C 18.753906 -10.722656 18.601562 -9.558594 18.324219 -8.21875 L 17.582031 -4.613281 C 17.179688 -2.660156 16.382812 -1.628906 15.699219 -0.722656 C 15.183594 -0.0429688 14.734375 0.566406 14.558594 1.429688 C 14.273438 2.800781 15.523438 3.667969 17.085938 3.992188 C 18.988281 4.382812 21.199219 3.964844 21.511719 2.457031 C 21.683594 1.617188 21.492188 0.996094 21.289062 0.285156 C 21.027344 -0.699219 20.679688 -1.847656 21.128906 -4.027344 L 21.746094 -7.015625 C 22.191406 -9.167969 22.972656 -10.140625 23.640625 -10.964844 C 24.105469 -11.539062 24.507812 -12.070312 24.667969 -12.851562 C 24.984375 -14.386719 23.503906 -15.539062 21.828125 -15.882812 C 20.460938 -16.164062 19.035156 -15.90625 17.925781 -14.621094 C 15.015625 -11.230469 13.359375 -6.882812 13.304688 -6.75 C 13.191406 -6.480469 13.023438 -6.371094 12.882812 -6.398438 C 12.742188 -6.429688 12.660156 -6.589844 12.660156 -6.882812 C 12.601562 -9.835938 12.644531 -13.148438 11.246094 -16.40625 C 10.65625 -17.78125 9.535156 -18.417969 8.335938 -18.667969 C 6.574219 -19.03125 4.605469 -18.503906 4.222656 -16.660156 C 4.050781 -15.824219 4.253906 -15.257812 4.46875 -14.601562 C 4.777344 -13.691406 5.160156 -12.59375 4.699219 -10.359375 L 4.082031 -7.371094 C 3.6875 -5.441406 2.890625 -4.414062 2.207031 -3.503906 C 1.691406 -2.824219 1.242188 -2.21875 1.066406 -1.351562 C 0.78125 0.015625 2.03125 0.886719 3.59375 1.207031 Z M 3.59375 1.207031 "/></g></g></g><g fill="#a591ef" fill-opacity="1"><g transform="translate(221.131653, 113.540448)"><g><path d="M 2.324219 1.898438 C 3.996094 2.882812 6.226562 3.199219 7.007812 1.871094 C 7.238281 1.476562 7.289062 1.109375 7.355469 0.71875 C 7.4375 0.238281 7.527344 -0.304688 7.84375 -0.84375 C 8.234375 -1.507812 8.886719 -1.71875 9.871094 -1.140625 L 11.074219 -0.433594 C 11.714844 -0.0585938 12.214844 0.667969 11.867188 1.257812 C 11.609375 1.699219 10.8125 2.324219 10.296875 2.582031 C 9.882812 2.835938 9.496094 3.039062 9.164062 3.605469 C 8.457031 4.808594 9.355469 6.035156 10.734375 6.84375 C 12.40625 7.828125 14.632812 8.144531 15.414062 6.816406 C 15.890625 6.007812 15.800781 5.488281 15.664062 4.816406 C 15.539062 4.078125 15.277344 3.195312 15.960938 0.320312 L 16.640625 -2.519531 C 17.570312 -6.410156 18.542969 -7.558594 19.152344 -8.421875 C 19.304688 -8.628906 19.445312 -8.8125 19.578125 -9.035156 C 20.371094 -10.386719 19.441406 -11.726562 18.039062 -12.550781 C 16.441406 -13.492188 14.179688 -13.699219 13.328125 -12.246094 C 13.210938 -12.050781 13.121094 -11.839844 12.988281 -11.617188 C 12.503906 -10.679688 12.042969 -9.363281 8.980469 -6.660156 L 7.675781 -5.511719 C 4.886719 -3.046875 3.707031 -2.816406 2.785156 -2.597656 C 1.941406 -2.398438 1.292969 -2.25 0.757812 -1.34375 C 0.046875 -0.136719 0.949219 1.085938 2.324219 1.898438 Z M 11.34375 -2.460938 C 10.753906 -2.808594 10.570312 -3.34375 10.890625 -3.886719 C 11.28125 -4.550781 12.027344 -5.367188 12.894531 -6.28125 C 13.390625 -6.785156 13.886719 -7.351562 14.425781 -7.925781 C 14.671875 -8.179688 14.882812 -8.253906 15.03125 -8.167969 C 15.152344 -8.09375 15.238281 -7.847656 15.113281 -7.523438 C 14.898438 -6.988281 14.691406 -6.414062 14.542969 -5.875 C 14.054688 -4.539062 13.625 -3.300781 13.203125 -2.589844 C 12.871094 -2.023438 12.324219 -1.882812 11.710938 -2.242188 Z M 11.34375 -2.460938 "/></g></g></g><g fill="#a591ef" fill-opacity="1"><g transform="translate(239.833185, 124.995328)"><g><path d="M 2.109375 3.152344 C 3.375 4.621094 5.382812 5.640625 6.550781 4.636719 C 7.199219 4.078125 7.425781 3.46875 7.699219 2.78125 C 8.09375 1.839844 8.523438 0.71875 10.273438 -0.789062 L 13.039062 -3.171875 C 14.035156 -4.027344 14.871094 -4.671875 15.355469 -4.109375 C 16.042969 -3.308594 12.558594 0.292969 11.542969 1.167969 C 10.503906 2.058594 9.644531 3.554688 11.1875 5.347656 C 12.882812 7.3125 14.289062 6.367188 15.175781 5.605469 C 16.535156 4.433594 20.394531 1.789062 21.046875 2.546875 C 21.398438 2.957031 20.570312 3.785156 19.53125 4.675781 L 16.742188 7.078125 C 15.230469 8.378906 13.972656 8.710938 12.875 9.011719 C 12.050781 9.234375 11.328125 9.441406 10.65625 10.019531 C 9.597656 10.933594 10.054688 12.382812 11.097656 13.59375 C 12.363281 15.0625 14.371094 16.082031 15.539062 15.078125 C 16.1875 14.519531 16.414062 13.910156 16.6875 13.222656 C 17.082031 12.28125 17.507812 11.160156 19.195312 9.707031 L 21.507812 7.71875 C 23.171875 6.285156 24.386719 5.992188 25.417969 5.746094 C 26.136719 5.574219 26.777344 5.402344 27.382812 4.878906 C 28.570312 3.855469 28.101562 2.042969 26.984375 0.746094 C 26.074219 -0.3125 24.789062 -0.976562 23.125 -0.636719 C 18.75 0.269531 14.785156 2.703125 14.65625 2.773438 C 14.402344 2.917969 14.203125 2.902344 14.109375 2.796875 C 14.015625 2.6875 14.050781 2.507812 14.230469 2.277344 C 15.984375 -0.0976562 18.039062 -2.695312 18.921875 -6.128906 C 19.296875 -7.578125 18.796875 -8.765625 17.996094 -9.695312 C 16.824219 -11.058594 14.941406 -11.847656 13.515625 -10.617188 C 12.867188 -10.058594 12.683594 -9.488281 12.453125 -8.835938 C 12.140625 -7.929688 11.777344 -6.824219 10.046875 -5.335938 L 7.734375 -3.34375 C 6.242188 -2.0625 4.984375 -1.730469 3.890625 -1.429688 C 3.0625 -1.207031 2.339844 -0.996094 1.667969 -0.421875 C 0.609375 0.492188 1.066406 1.941406 2.109375 3.152344 Z M 2.109375 3.152344 "/></g></g></g><g fill="#a591ef" fill-opacity="1"><g transform="translate(256.678449, 146.530619)"><g><path d="M 0.683594 2.921875 C 1.40625 4.722656 2.976562 6.335938 4.40625 5.757812 C 4.832031 5.589844 5.09375 5.328125 5.386719 5.058594 C 5.746094 4.730469 6.148438 4.351562 6.730469 4.117188 C 7.445312 3.832031 8.089844 4.0625 8.515625 5.121094 L 9.039062 6.417969 C 9.3125 7.105469 9.269531 7.984375 8.632812 8.242188 C 8.15625 8.433594 7.144531 8.441406 6.578125 8.328125 C 6.097656 8.277344 5.667969 8.203125 5.058594 8.449219 C 3.761719 8.96875 3.726562 10.492188 4.324219 11.972656 C 5.046875 13.773438 6.617188 15.382812 8.046875 14.808594 C 8.921875 14.457031 9.164062 13.992188 9.46875 13.375 C 9.816406 12.714844 10.148438 11.859375 12.445312 9.996094 L 14.71875 8.160156 C 17.828125 5.648438 19.300781 5.335938 20.3125 5.019531 C 20.558594 4.949219 20.78125 4.890625 21.019531 4.796875 C 22.476562 4.210938 22.558594 2.578125 21.949219 1.070312 C 21.257812 -0.648438 19.59375 -2.191406 18.03125 -1.566406 C 17.820312 -1.480469 17.617188 -1.367188 17.378906 -1.273438 C 16.421875 -0.824219 15.253906 -0.0625 11.179688 0.207031 L 9.445312 0.320312 C 5.730469 0.570312 4.65625 0.0351562 3.792969 -0.355469 C 3 -0.714844 2.398438 -0.996094 1.417969 -0.601562 C 0.121094 -0.078125 0.0859375 1.441406 0.683594 2.921875 Z M 10.484375 4.976562 C 10.230469 4.339844 10.414062 3.804688 10.996094 3.570312 C 11.710938 3.28125 12.800781 3.089844 14.046875 2.898438 C 14.746094 2.800781 15.488281 2.65625 16.265625 2.527344 C 16.613281 2.480469 16.828125 2.546875 16.890625 2.707031 C 16.945312 2.839844 16.859375 3.085938 16.5625 3.269531 C 16.066406 3.5625 15.550781 3.890625 15.101562 4.222656 C 13.902344 4.984375 12.808594 5.703125 12.039062 6.011719 C 11.429688 6.253906 10.910156 6.035156 10.644531 5.371094 Z M 10.484375 4.976562 "/></g></g></g><g fill="#a591ef" fill-opacity="1"><g transform="translate(263.939463, 168.006505)"><g/></g></g><g fill="#a591ef" fill-opacity="1"><g transform="translate(116.866875, 260.073482)"><g><path d="M 5.4375 5.550781 C 9.933594 9.636719 11.367188 10.011719 13.246094 7.941406 C 14.03125 7.074219 14.050781 5.824219 13.3125 5.152344 C 12.53125 4.441406 11.707031 4.542969 10.84375 4.644531 C 9.941406 4.75 9.039062 4.855469 8.128906 4.03125 C 6.695312 2.726562 7.316406 1.019531 9.351562 -1.21875 C 10.691406 -2.695312 10.917969 -2.648438 11.699219 -1.9375 C 13.410156 -0.386719 12.617188 0.742188 13.480469 1.53125 C 14.285156 2.257812 15.296875 1.480469 16.214844 0.46875 C 17.289062 -0.714844 17.839844 -1.910156 16.929688 -2.734375 C 15.894531 -3.675781 14.292969 -2.546875 13.257812 -3.488281 C 12.289062 -4.371094 12.398438 -4.617188 14.621094 -7.066406 C 15.769531 -8.332031 16.542969 -8.25 17.304688 -7.558594 C 18.0625 -6.871094 18.160156 -6.085938 18.300781 -5.265625 C 18.425781 -4.34375 18.574219 -3.359375 19.652344 -2.382812 C 20.328125 -1.769531 21.453125 -1.480469 22.355469 -2.472656 C 23.792969 -4.058594 22.945312 -6.136719 19.417969 -9.335938 C 15.34375 -13.039062 13.378906 -13.589844 12.113281 -12.195312 C 11.574219 -11.605469 11.441406 -11.03125 11.269531 -10.378906 C 11.019531 -9.335938 10.675781 -8.027344 8.742188 -5.894531 L 7.265625 -4.269531 C 5.941406 -2.8125 4.734375 -2.328125 3.683594 -1.894531 C 2.890625 -1.574219 2.199219 -1.277344 1.605469 -0.621094 C 0.667969 0.410156 1.296875 1.796875 5.4375 5.550781 Z M 5.4375 5.550781 "/></g></g></g><g fill="#a591ef" fill-opacity="1"><g transform="translate(138.10186, 277.192022)"><g><path d="M 6.667969 3.707031 C 8.339844 4.507812 10.609375 4.523438 11.339844 3.003906 C 11.4375 2.800781 11.511719 2.582031 11.621094 2.351562 C 12.027344 1.375 12.480469 0.167969 15.199219 -2.925781 C 18.054688 -6.175781 18.820312 -6.785156 21.03125 -7.5 C 21.855469 -7.765625 22.488281 -7.96875 22.945312 -8.921875 C 23.550781 -10.179688 22.550781 -11.324219 21.109375 -12.015625 C 19.359375 -12.855469 17.113281 -12.984375 16.445312 -11.597656 C 16.25 -11.183594 16.230469 -10.8125 16.199219 -10.417969 C 16.15625 -9.933594 16.113281 -9.382812 15.839844 -8.816406 C 15.496094 -8.097656 12.328125 -4.332031 9.878906 -1.207031 C 9.65625 -0.933594 9.453125 -0.84375 9.296875 -0.917969 C 9.167969 -0.976562 9.074219 -1.246094 9.160156 -1.550781 C 9.675781 -3.679688 10.554688 -8.285156 11.652344 -10.574219 C 11.875 -11.035156 12.617188 -11.726562 13.085938 -12.039062 C 13.5 -12.3125 13.867188 -12.550781 14.152344 -13.140625 C 14.753906 -14.402344 13.753906 -15.546875 12.316406 -16.234375 C 10.566406 -17.074219 8.320312 -17.203125 7.652344 -15.816406 C 7.246094 -14.96875 7.382812 -14.460938 7.570312 -13.800781 C 8.035156 -11.996094 7.832031 -11.046875 7.21875 -6.40625 C 6.683594 -2.457031 5.746094 -1.230469 5.210938 -0.3125 C 5.074219 -0.09375 4.953125 0.0976562 4.839844 0.328125 C 4.160156 1.742188 5.203125 3.003906 6.667969 3.707031 Z M 6.667969 3.707031 "/></g></g></g><g fill="#a591ef" fill-opacity="1"><g transform="translate(164.392906, 287.858426)"><g><path d="M 7.589844 1.667969 C 13.589844 2.621094 14.992188 2.152344 15.433594 -0.609375 C 15.617188 -1.761719 14.945312 -2.824219 13.960938 -2.980469 C 12.917969 -3.144531 12.285156 -2.609375 11.617188 -2.050781 C 10.917969 -1.46875 10.21875 -0.886719 9.007812 -1.082031 C 7.09375 -1.386719 6.683594 -3.15625 7.15625 -6.140625 C 7.46875 -8.113281 7.683594 -8.195312 8.726562 -8.027344 C 11.007812 -7.664062 10.964844 -6.285156 12.117188 -6.101562 C 13.1875 -5.933594 13.609375 -7.136719 13.824219 -8.488281 C 14.078125 -10.066406 13.878906 -11.367188 12.667969 -11.558594 C 11.289062 -11.78125 10.566406 -9.960938 9.183594 -10.179688 C 7.890625 -10.386719 7.84375 -10.652344 8.363281 -13.917969 C 8.632812 -15.609375 9.324219 -15.960938 10.339844 -15.800781 C 11.351562 -15.640625 11.863281 -15.039062 12.429688 -14.429688 C 13.039062 -13.726562 13.703125 -12.984375 15.140625 -12.753906 C 16.039062 -12.613281 17.140625 -12.988281 17.351562 -14.308594 C 17.6875 -16.421875 15.839844 -17.699219 11.132812 -18.445312 C 5.699219 -19.3125 3.75 -18.695312 3.457031 -16.835938 C 3.332031 -16.046875 3.53125 -15.496094 3.746094 -14.855469 C 4.105469 -13.84375 4.539062 -12.5625 4.085938 -9.71875 L 3.742188 -7.550781 C 3.433594 -5.605469 2.6875 -4.539062 2.046875 -3.601562 C 1.558594 -2.898438 1.140625 -2.273438 1.003906 -1.398438 C 0.78125 -0.0195312 2.070312 0.792969 7.589844 1.667969 Z M 7.589844 1.667969 "/></g></g></g><g fill="#a591ef" fill-opacity="1"><g transform="translate(191.70273, 290.660385)"><g><path d="M 3.792969 -0.0976562 C 5.710938 -0.378906 7.644531 -1.53125 7.421875 -3.054688 C 7.121094 -5.085938 5.410156 -5.152344 4.839844 -9.015625 L 4.230469 -13.164062 C 4.128906 -13.839844 4.246094 -14.03125 4.527344 -14.074219 C 4.8125 -14.113281 4.953125 -13.933594 5.210938 -13.539062 C 7.910156 -9.121094 9.558594 -6.742188 10.570312 -5.363281 C 12.410156 -2.835938 12.085938 -1.320312 14.769531 -1.714844 C 16.6875 -1.996094 16.972656 -3.191406 16.746094 -4.714844 C 16.449219 -6.75 16.183594 -6.796875 15.621094 -10.605469 L 15.175781 -13.625 C 14.625 -17.347656 16.203125 -18.1875 15.921875 -20.105469 C 15.691406 -21.65625 13.90625 -22.230469 12.214844 -21.980469 C 10.4375 -21.71875 8.765625 -20.550781 9.039062 -18.6875 C 9.332031 -16.683594 11.074219 -16.796875 11.644531 -12.929688 C 11.875 -11.378906 12.027344 -10.335938 12.152344 -9.285156 C 12.210938 -8.890625 12.070312 -8.667969 11.875 -8.640625 C 11.703125 -8.613281 11.484375 -8.726562 11.332031 -8.992188 L 6.296875 -17.128906 C 4.949219 -19.238281 4.960938 -20.914062 1.71875 -20.433594 C -0.625 -20.089844 -2.015625 -18.960938 -1.742188 -17.097656 C -1.445312 -15.097656 0.296875 -15.207031 0.867188 -11.34375 L 1.3125 -8.324219 C 1.816406 -4.878906 0.242188 -3.640625 0.539062 -1.636719 C 0.742188 -0.253906 2.210938 0.136719 3.792969 -0.0976562 Z M 3.792969 -0.0976562 "/></g></g></g><g fill="#a591ef" fill-opacity="1"><g transform="translate(221.957419, 284.137842)"><g><path d="M 7.050781 -2.914062 C 8.695312 -3.710938 10.089844 -5.339844 9.417969 -6.722656 C 8.523438 -8.570312 6.925781 -8.207031 5.242188 -11.671875 L 2.742188 -16.832031 C 1.746094 -18.882812 1.488281 -19.679688 2.15625 -20 C 3.15625 -20.488281 4.816406 -18.695312 6.664062 -19.589844 C 7.539062 -20.011719 7.5625 -21.070312 6.648438 -22.5 C 5.660156 -24.015625 4.375 -24.3125 2.914062 -23.601562 C 0.960938 -22.65625 0.417969 -21.886719 -1.121094 -21.136719 C -3.019531 -20.21875 -3.914062 -20.292969 -5.785156 -19.382812 C -7.300781 -18.648438 -7.980469 -17.304688 -7.363281 -15.511719 C -6.882812 -14.0625 -6.039062 -13.429688 -4.933594 -13.964844 C -3.1875 -14.8125 -3.515625 -17.25 -2.464844 -17.761719 C -1.769531 -18.097656 -1.269531 -17.390625 -0.285156 -15.363281 L 2.289062 -10.050781 C 3.808594 -6.917969 2.753906 -5.300781 3.640625 -3.476562 C 4.25 -2.21875 5.691406 -2.253906 7.050781 -2.914062 Z M 7.050781 -2.914062 "/></g></g></g><g fill="#a591ef" fill-opacity="1"><g transform="translate(245.883152, 270.693476)"><g><path d="M 6.136719 -4.949219 C 9.625 -8.113281 10.1875 -11.355469 7.886719 -13.890625 C 5.355469 -16.679688 2.058594 -15.691406 -0.832031 -14.800781 C -3.105469 -14.125 -5.15625 -13.496094 -6.382812 -14.851562 C -7.09375 -15.632812 -6.917969 -16.714844 -6.03125 -17.519531 C -5.164062 -18.304688 -4.5 -18.25 -3.621094 -17.625 C -2.488281 -16.882812 -1.46875 -16.648438 -0.242188 -17.761719 C 0.832031 -18.738281 1.191406 -20.253906 0.00390625 -21.566406 C -1.167969 -22.855469 -3.96875 -23.355469 -7.347656 -20.289062 C -9.90625 -17.96875 -11.34375 -14.585938 -8.832031 -11.820312 C -6.304688 -9.03125 -2.941406 -10.039062 -0.0742188 -10.90625 C 2.035156 -11.511719 3.839844 -12.070312 4.855469 -10.949219 C 5.601562 -10.125 5.789062 -8.984375 4.648438 -7.949219 C 3.675781 -7.070312 2.824219 -6.988281 1.621094 -7.554688 C -0.0195312 -8.300781 -0.828125 -8.257812 -1.992188 -7.203125 C -3.386719 -5.941406 -3.105469 -4.191406 -2.128906 -3.113281 C -0.597656 -1.421875 2.484375 -1.636719 6.136719 -4.949219 Z M 6.136719 -4.949219 "/></g></g></g><g fill="#d4b2e4" fill-opacity="1"><g transform="translate(169.506423, 130.380138)"><g><path d="M 6.171875 -9.359375 L 6.171875 -8.171875 L 2.546875 -8.171875 L 2.546875 -5.328125 L 5.765625 -5.328125 L 5.765625 -4.140625 L 2.546875 -4.140625 L 2.546875 -1.203125 L 6.171875 -1.203125 L 6.171875 0 L 1.015625 0 L 1.015625 -9.359375 Z M 6.171875 -9.359375 "/></g></g></g><g fill="#d4b2e4" fill-opacity="1"><g transform="translate(183.162277, 130.380138)"><g><path d="M 3.90625 -8.21875 C 3.457031 -8.21875 3.085938 -8.097656 2.796875 -7.859375 C 2.515625 -7.628906 2.375 -7.289062 2.375 -6.84375 C 2.375 -6.40625 2.539062 -6.066406 2.875 -5.828125 C 3.21875 -5.597656 3.628906 -5.429688 4.109375 -5.328125 C 4.597656 -5.222656 5.082031 -5.097656 5.5625 -4.953125 C 6.050781 -4.816406 6.460938 -4.5625 6.796875 -4.1875 C 7.140625 -3.8125 7.3125 -3.273438 7.3125 -2.578125 C 7.3125 -1.890625 7.019531 -1.269531 6.4375 -0.71875 C 5.851562 -0.175781 5.070312 0.09375 4.09375 0.09375 C 3.125 0.09375 2.332031 -0.132812 1.71875 -0.59375 C 1.113281 -1.050781 0.8125 -1.679688 0.8125 -2.484375 L 2.453125 -2.484375 C 2.484375 -2.078125 2.632812 -1.75 2.90625 -1.5 C 3.175781 -1.257812 3.570312 -1.140625 4.09375 -1.140625 C 4.613281 -1.140625 5.019531 -1.273438 5.3125 -1.546875 C 5.613281 -1.816406 5.765625 -2.132812 5.765625 -2.5 C 5.765625 -2.863281 5.671875 -3.148438 5.484375 -3.359375 C 5.304688 -3.566406 5.070312 -3.722656 4.78125 -3.828125 C 4.488281 -3.929688 4.164062 -4.019531 3.8125 -4.09375 C 3.46875 -4.175781 3.117188 -4.269531 2.765625 -4.375 C 2.410156 -4.488281 2.085938 -4.628906 1.796875 -4.796875 C 1.503906 -4.972656 1.265625 -5.222656 1.078125 -5.546875 C 0.898438 -5.878906 0.8125 -6.28125 0.8125 -6.75 C 0.8125 -7.570312 1.101562 -8.226562 1.6875 -8.71875 C 2.269531 -9.21875 3.03125 -9.46875 3.96875 -9.46875 C 4.90625 -9.46875 5.65625 -9.25 6.21875 -8.8125 C 6.78125 -8.382812 7.09375 -7.765625 7.15625 -6.953125 L 5.46875 -6.953125 C 5.425781 -7.316406 5.269531 -7.617188 5 -7.859375 C 4.726562 -8.097656 4.363281 -8.21875 3.90625 -8.21875 Z M 3.90625 -8.21875 "/></g></g></g><g fill="#d4b2e4" fill-opacity="1"><g transform="translate(197.894367, 130.380138)"><g><path d="M 0.53125 -8.15625 L 0.53125 -9.34375 L 7.046875 -9.34375 L 7.046875 -8.15625 L 4.5625 -8.15625 L 4.5625 0 L 3.03125 0 L 3.03125 -8.15625 Z M 0.53125 -8.15625 "/></g></g></g><g fill="#d4b2e4" fill-opacity="1"><g transform="translate(161.19783, 257.456642)"><g><path d="M 0.6875 -0.140625 L 0.6875 -1.25 C 0.90625 -1.445312 1.226562 -1.726562 1.65625 -2.09375 C 2.09375 -2.46875 2.425781 -2.753906 2.65625 -2.953125 C 2.882812 -3.148438 3.164062 -3.40625 3.5 -3.71875 C 3.84375 -4.039062 4.109375 -4.316406 4.296875 -4.546875 C 4.492188 -4.773438 4.691406 -5.035156 4.890625 -5.328125 C 5.253906 -5.847656 5.4375 -6.367188 5.4375 -6.890625 C 5.4375 -8.003906 4.90625 -8.5625 3.84375 -8.5625 C 3.3125 -8.5625 2.898438 -8.390625 2.609375 -8.046875 C 2.316406 -7.710938 2.164062 -7.265625 2.15625 -6.703125 L 0.671875 -6.703125 C 0.703125 -7.722656 1.007812 -8.503906 1.59375 -9.046875 C 2.175781 -9.585938 2.9375 -9.859375 3.875 -9.859375 C 4.820312 -9.859375 5.570312 -9.59375 6.125 -9.0625 C 6.675781 -8.539062 6.953125 -7.84375 6.953125 -6.96875 C 6.953125 -6.3125 6.78125 -5.6875 6.4375 -5.09375 C 6.238281 -4.789062 6.054688 -4.519531 5.890625 -4.28125 C 5.722656 -4.039062 5.484375 -3.769531 5.171875 -3.46875 C 4.867188 -3.164062 4.628906 -2.925781 4.453125 -2.75 C 4.273438 -2.582031 4.007812 -2.347656 3.65625 -2.046875 C 3.3125 -1.742188 3.078125 -1.53125 2.953125 -1.40625 L 7.21875 -1.40625 L 7.21875 -0.140625 Z M 0.6875 -0.140625 "/></g></g></g><g fill="#d4b2e4" fill-opacity="1"><g transform="translate(175.566696, 257.456642)"><g><path d="M 2.609375 -9.4375 C 3.078125 -9.6875 3.640625 -9.8125 4.296875 -9.8125 C 4.960938 -9.8125 5.53125 -9.6875 6 -9.4375 C 6.46875 -9.1875 6.828125 -8.832031 7.078125 -8.375 C 7.335938 -7.914062 7.519531 -7.40625 7.625 -6.84375 C 7.738281 -6.289062 7.796875 -5.648438 7.796875 -4.921875 C 7.796875 -4.191406 7.738281 -3.546875 7.625 -2.984375 C 7.519531 -2.429688 7.335938 -1.921875 7.078125 -1.453125 C 6.828125 -0.992188 6.46875 -0.640625 6 -0.390625 C 5.53125 -0.148438 4.960938 -0.03125 4.296875 -0.03125 C 3.640625 -0.03125 3.078125 -0.148438 2.609375 -0.390625 C 2.140625 -0.640625 1.773438 -0.992188 1.515625 -1.453125 C 1.265625 -1.921875 1.082031 -2.429688 0.96875 -2.984375 C 0.863281 -3.546875 0.8125 -4.191406 0.8125 -4.921875 C 0.8125 -5.648438 0.863281 -6.289062 0.96875 -6.84375 C 1.082031 -7.40625 1.265625 -7.914062 1.515625 -8.375 C 1.773438 -8.832031 2.140625 -9.1875 2.609375 -9.4375 Z M 4.3125 -8.40625 C 3.875 -8.40625 3.515625 -8.3125 3.234375 -8.125 C 2.960938 -7.945312 2.765625 -7.675781 2.640625 -7.3125 C 2.421875 -6.695312 2.3125 -5.898438 2.3125 -4.921875 C 2.3125 -3.929688 2.421875 -3.128906 2.640625 -2.515625 C 2.890625 -1.785156 3.441406 -1.421875 4.296875 -1.421875 C 5.160156 -1.421875 5.71875 -1.785156 5.96875 -2.515625 C 6.1875 -3.128906 6.296875 -3.929688 6.296875 -4.921875 C 6.296875 -5.898438 6.1875 -6.695312 5.96875 -7.3125 C 5.71875 -8.039062 5.164062 -8.40625 4.3125 -8.40625 Z M 4.3125 -8.40625 "/></g></g></g><g fill="#d4b2e4" fill-opacity="1"><g transform="translate(190.796558, 257.456642)"><g><path d="M 0.6875 -0.140625 L 0.6875 -1.25 C 0.90625 -1.445312 1.226562 -1.726562 1.65625 -2.09375 C 2.09375 -2.46875 2.425781 -2.753906 2.65625 -2.953125 C 2.882812 -3.148438 3.164062 -3.40625 3.5 -3.71875 C 3.84375 -4.039062 4.109375 -4.316406 4.296875 -4.546875 C 4.492188 -4.773438 4.691406 -5.035156 4.890625 -5.328125 C 5.253906 -5.847656 5.4375 -6.367188 5.4375 -6.890625 C 5.4375 -8.003906 4.90625 -8.5625 3.84375 -8.5625 C 3.3125 -8.5625 2.898438 -8.390625 2.609375 -8.046875 C 2.316406 -7.710938 2.164062 -7.265625 2.15625 -6.703125 L 0.671875 -6.703125 C 0.703125 -7.722656 1.007812 -8.503906 1.59375 -9.046875 C 2.175781 -9.585938 2.9375 -9.859375 3.875 -9.859375 C 4.820312 -9.859375 5.570312 -9.59375 6.125 -9.0625 C 6.675781 -8.539062 6.953125 -7.84375 6.953125 -6.96875 C 6.953125 -6.3125 6.78125 -5.6875 6.4375 -5.09375 C 6.238281 -4.789062 6.054688 -4.519531 5.890625 -4.28125 C 5.722656 -4.039062 5.484375 -3.769531 5.171875 -3.46875 C 4.867188 -3.164062 4.628906 -2.925781 4.453125 -2.75 C 4.273438 -2.582031 4.007812 -2.347656 3.65625 -2.046875 C 3.3125 -1.742188 3.078125 -1.53125 2.953125 -1.40625 L 7.21875 -1.40625 L 7.21875 -0.140625 Z M 0.6875 -0.140625 "/></g></g></g><g fill="#d4b2e4" fill-opacity="1"><g transform="translate(205.165424, 257.456642)"><g><path d="M 2.609375 -9.4375 C 3.078125 -9.6875 3.640625 -9.8125 4.296875 -9.8125 C 4.960938 -9.8125 5.53125 -9.6875 6 -9.4375 C 6.46875 -9.1875 6.828125 -8.832031 7.078125 -8.375 C 7.335938 -7.914062 7.519531 -7.40625 7.625 -6.84375 C 7.738281 -6.289062 7.796875 -5.648438 7.796875 -4.921875 C 7.796875 -4.191406 7.738281 -3.546875 7.625 -2.984375 C 7.519531 -2.429688 7.335938 -1.921875 7.078125 -1.453125 C 6.828125 -0.992188 6.46875 -0.640625 6 -0.390625 C 5.53125 -0.148438 4.960938 -0.03125 4.296875 -0.03125 C 3.640625 -0.03125 3.078125 -0.148438 2.609375 -0.390625 C 2.140625 -0.640625 1.773438 -0.992188 1.515625 -1.453125 C 1.265625 -1.921875 1.082031 -2.429688 0.96875 -2.984375 C 0.863281 -3.546875 0.8125 -4.191406 0.8125 -4.921875 C 0.8125 -5.648438 0.863281 -6.289062 0.96875 -6.84375 C 1.082031 -7.40625 1.265625 -7.914062 1.515625 -8.375 C 1.773438 -8.832031 2.140625 -9.1875 2.609375 -9.4375 Z M 4.3125 -8.40625 C 3.875 -8.40625 3.515625 -8.3125 3.234375 -8.125 C 2.960938 -7.945312 2.765625 -7.675781 2.640625 -7.3125 C 2.421875 -6.695312 2.3125 -5.898438 2.3125 -4.921875 C 2.3125 -3.929688 2.421875 -3.128906 2.640625 -2.515625 C 2.890625 -1.785156 3.441406 -1.421875 4.296875 -1.421875 C 5.160156 -1.421875 5.71875 -1.785156 5.96875 -2.515625 C 6.1875 -3.128906 6.296875 -3.929688 6.296875 -4.921875 C 6.296875 -5.898438 6.1875 -6.695312 5.96875 -7.3125 C 5.71875 -8.039062 5.164062 -8.40625 4.3125 -8.40625 Z M 4.3125 -8.40625 "/></g></g></g></svg>